<svg width="16" height="14" viewBox="0 0 16 14" fill="none" xmlns="http://www.w3.org/2000/svg">
<path d="M15.6215 2.24219C15.0489 2.49546 14.4417 2.66179 13.82 2.73569C14.4753 2.34376 14.9658 1.72695 15.2 1.00019C14.585 1.36619 13.9107 1.62269 13.208 1.76144C12.736 1.25637 12.1103 0.921411 11.4282 0.808628C10.7462 0.695844 10.0459 0.811557 9.43644 1.13778C8.82694 1.464 8.34229 1.98245 8.05783 2.61253C7.77338 3.24262 7.70506 3.94902 7.86349 4.62194C6.61632 4.55943 5.39624 4.23533 4.28246 3.67069C3.16868 3.10604 2.18609 2.31347 1.39849 1.34444C1.11971 1.82328 0.97321 2.36761 0.973994 2.92169C0.973994 4.00919 1.52749 4.96994 2.36899 5.53244C1.871 5.51676 1.38397 5.38227 0.948494 5.14019V5.17919C0.948644 5.90346 1.19927 6.6054 1.65788 7.16598C2.11649 7.72657 2.75486 8.1113 3.46474 8.25494C3.00245 8.38022 2.51772 8.39868 2.04724 8.30894C2.24739 8.93236 2.6375 9.47759 3.16294 9.86827C3.68838 10.259 4.32284 10.4755 4.97749 10.4877C4.32685 10.9987 3.58188 11.3764 2.78515 11.5993C1.98843 11.8222 1.15559 11.8859 0.334244 11.7867C1.76802 12.7088 3.43707 13.1983 5.14174 13.1967C10.9115 13.1967 14.0667 8.41694 14.0667 4.27169C14.0667 4.13669 14.063 4.00019 14.057 3.86669C14.6711 3.42281 15.2012 2.87295 15.6222 2.24294L15.6215 2.24219Z" fill="#151515"/>
</svg>
