<svg width="150" height="15" viewBox="0 0 150 15" fill="none" xmlns="http://www.w3.org/2000/svg">
<path d="M74.2789 14.3741H69.1589V0.686108H74.2789V14.3741ZM69.6589 13.8741H73.7789V1.18611H69.6589V13.8741ZM81.4029 14.3741H76.3859V0.686108H86.8679C88.3695 0.564508 89.8649 0.986078 91.0819 1.87411C91.6058 2.35342 92.0119 2.9473 92.2684 3.6094C92.525 4.27151 92.6251 4.98394 92.5609 5.69111C92.6357 6.91308 92.2468 8.11831 91.4719 9.06611C90.5549 10.1181 89.0289 10.6601 86.9369 10.6791C86.4099 10.6931 82.4609 10.6791 81.4059 10.6791L81.4029 14.3741ZM76.8829 13.8741H80.9029V10.1741H81.1539C81.2049 10.1741 86.3319 10.1901 86.9249 10.1741C88.8739 10.1571 90.2749 9.67411 91.0939 8.73111C91.7837 7.87356 92.1263 6.78826 92.0539 5.69011C92.1154 5.05648 92.0301 4.4172 91.8047 3.82185C91.5792 3.2265 91.2197 2.69108 90.7539 2.25711C89.6255 1.44721 88.2449 1.06704 86.8609 1.18511H76.8859L76.8829 13.8741ZM85.8059 7.60411H80.8689V3.87811H85.8389C86.1912 3.82943 86.5501 3.87055 86.8822 3.99764C87.2144 4.12474 87.5091 4.33369 87.7389 4.60511C87.9474 4.95205 88.0457 5.35409 88.0209 5.75811C88.0396 6.13321 87.9586 6.50658 87.7859 6.84011C87.5488 7.12599 87.2421 7.34606 86.8953 7.47916C86.5486 7.61226 86.1734 7.65391 85.8059 7.60011V7.60411ZM81.3689 7.10411H85.8059C86.6259 7.10411 87.1339 6.93311 87.3589 6.58111C87.4828 6.32526 87.5389 6.04187 87.5219 5.75811C87.5438 5.46017 87.4792 5.16225 87.3359 4.90011L87.3299 4.89111C87.0919 4.54111 86.6189 4.37811 85.8389 4.37811H81.3689V7.10411ZM101.686 14.5761C97.1959 14.5761 94.5159 13.4611 93.4949 11.1681C93.3278 10.7252 93.2144 10.2639 93.1569 9.79411L93.1129 9.50611H98.4549L98.4899 9.71611C98.531 9.92931 98.6219 10.13 98.7539 10.3021C98.9649 10.5571 99.6689 10.9851 102.005 10.9851C104.813 10.9851 104.813 10.4921 104.813 10.2271C104.813 9.78011 104.488 9.62711 102.198 9.38311L101.763 9.34211C100.901 9.26111 99.8109 9.15811 99.3129 9.11511C95.1129 8.73511 93.2379 7.43011 93.2379 4.88511C93.2379 2.21211 96.4289 0.485107 101.368 0.485107C105.397 0.485107 107.993 1.54711 109.082 3.64411C109.34 4.13189 109.514 4.6601 109.595 5.20611L109.63 5.48711H104.282L104.26 5.26111C104.239 5.08449 104.164 4.9188 104.044 4.78711C103.844 4.51911 103.212 4.07611 101.25 4.07611C98.8409 4.07611 98.5089 4.38411 98.5089 4.71611C98.5089 5.15911 99.2699 5.31611 101.709 5.57711C102.726 5.66011 104.361 5.82811 104.921 5.89611C108.442 6.27811 110.013 7.55111 110.013 10.0251C110.014 12.1001 108.569 14.5761 101.686 14.5761ZM93.6969 10.0061C93.747 10.3359 93.8332 10.6591 93.9539 10.9701C94.8839 13.0591 97.4139 14.0761 101.686 14.0761C105.258 14.0761 109.517 13.3761 109.517 10.0251C109.517 7.83211 108.127 6.74611 104.868 6.39311C104.308 6.32511 102.683 6.15811 101.668 6.07411C99.0679 5.79211 98.0109 5.64211 98.0109 4.71611C98.0109 3.75811 99.1499 3.57611 101.252 3.57611C102.913 3.57611 103.986 3.87611 104.441 4.48111C104.565 4.63016 104.659 4.80206 104.717 4.98711H109.051C108.964 4.60036 108.826 4.2268 108.641 3.87611C107.641 1.95711 105.198 0.985107 101.37 0.985107C96.7349 0.985107 93.7399 2.51611 93.7399 4.88511C93.7399 7.14511 95.4209 8.26111 99.3589 8.61711C99.8589 8.66011 100.948 8.76311 101.812 8.84511L102.25 8.88611C104.377 9.11011 105.315 9.25011 105.315 10.2271C105.315 11.2791 104.102 11.4851 102.007 11.4851C100.069 11.4851 98.8449 11.1941 98.3719 10.6211C98.2261 10.4384 98.1161 10.2297 98.0479 10.0061H93.6969ZM119.513 14.5591C114.293 14.5591 111.413 12.4481 111.413 8.61411V0.686108H116.465V8.61411C116.465 9.92911 117.642 10.6831 119.693 10.6831C121.653 10.6831 122.87 9.89611 122.87 8.63111V0.686108H127.87V9.03411C127.875 12.5451 124.826 14.5591 119.51 14.5591H119.513ZM111.913 1.18611V8.61411C111.913 13.3521 116.671 14.0591 119.513 14.0591C122.451 14.0591 127.378 13.4061 127.378 9.03411V1.18611H123.378V8.63111C123.378 10.1811 121.934 11.1831 119.701 11.1831C117.367 11.1831 115.973 10.2231 115.973 8.61411V1.18611H111.913ZM149.058 14.3741H144.29V8.19411L141.586 14.3741H137.427L134.751 8.20611V14.3741H129.966V0.686108H136.26L139.53 8.23311L142.958 0.686108H149.064L149.058 14.3741ZM144.79 13.8741H148.558V1.18611H143.276L139.514 9.46511L135.928 1.18611H130.462V13.8741H134.247V5.80011L137.747 13.8771H141.247L144.784 5.81211L144.79 13.8741ZM4.63994 0.936108H0.0859375V14.1241H12.6699V10.6131H4.63994V0.936108ZM21.8619 0.636107C16.0489 0.636107 12.9919 3.39111 12.9919 7.43611C12.9919 12.0061 16.2009 14.3241 21.8619 14.3241C28.0939 14.3241 30.7149 11.6361 30.7149 7.43611C30.7149 3.17111 27.7579 0.634108 21.8619 0.634108V0.636107ZM21.8449 4.06311C22.2406 4.06125 22.6361 4.08429 23.0289 4.13211L17.9379 9.22311C17.697 8.67821 17.5795 8.08671 17.5939 7.49111C17.5939 5.42211 18.6359 4.06111 21.8449 4.06111V4.06311ZM21.8619 10.9511C21.4806 10.9528 21.0996 10.9314 20.7209 10.8871L25.8209 5.78711C26.0528 6.32301 26.1638 6.90344 26.1459 7.48711C26.1459 9.50011 25.1859 10.9491 21.8619 10.9491V10.9511ZM39.7379 9.15111H44.4249C44.3559 9.47641 44.2121 9.78111 44.0049 10.0411C43.0332 10.8327 41.7931 11.2179 40.5439 11.1161C39.9151 11.1834 39.2793 11.1147 38.6794 10.9147C38.0795 10.7148 37.5295 10.3882 37.0669 9.95711C36.593 9.26201 36.3679 8.42721 36.4279 7.58811C36.3512 6.70885 36.596 5.83163 37.1169 5.11911C37.7719 4.37911 38.8809 4.06011 40.5109 4.06011C41.548 3.97424 42.5838 4.24059 43.4509 4.81611C43.7242 5.03319 43.9285 5.32502 44.0389 5.65611H48.3859C48.3543 5.11058 48.2231 4.57544 47.9989 4.07711C46.9579 1.96011 44.5379 0.700108 40.4229 0.700108C36.8439 0.700108 34.4419 1.79211 33.1149 3.43911C32.2385 4.62847 31.7886 6.07855 31.8379 7.55511C31.7812 9.06511 32.2195 10.5522 33.0859 11.7901C34.3969 13.4901 36.7319 14.3261 39.5379 14.3261C41.4034 14.4562 43.2562 13.9337 44.7789 12.8481L44.8969 14.1241H48.5079V6.31211H39.7379V9.15111ZM58.7569 0.633107C52.9449 0.633107 49.8869 3.38811 49.8869 7.43311C49.8869 12.0031 53.0949 14.3211 58.7569 14.3211C64.9899 14.3211 67.6109 11.6331 67.6109 7.43311C67.6109 3.17111 64.6539 0.634108 58.7569 0.634108V0.633107ZM58.7409 4.06011C59.1262 4.05897 59.5112 4.08101 59.8939 4.12611L54.8229 9.20011C54.5895 8.66121 54.4759 8.07821 54.4899 7.49111C54.4859 5.42211 55.5319 4.06111 58.7409 4.06111V4.06011ZM58.7569 10.9481C58.3655 10.9498 57.9744 10.927 57.5859 10.8801L62.7029 5.76211C62.9436 6.30514 63.0588 6.89543 63.0399 7.48911C63.0419 9.50011 62.0859 10.9491 58.7569 10.9491V10.9481Z" fill="#151515"/>
</svg>
